<svg xmlns="http://www.w3.org/2000/svg" viewBox="0 0 35 35"><defs><style>.a{fill:none;}.b{fill:#707070;}</style></defs><g transform="translate(-49 -535.5)"><path class="a" d="M0,0H35V35H0Z" transform="translate(49 535.5)"/><g transform="translate(22.507 496.222)"><g transform="translate(34.196 54.383)"><g transform="translate(0 0)"><path class="b" d="M90.093,221.053h-3a.694.694,0,0,1-.692-.692V206.692a.694.694,0,0,1,.692-.692h2.994a.694.694,0,0,1,.692.692v13.668A.686.686,0,0,1,90.093,221.053Z" transform="translate(-86.4 -206)"/><path class="b" d="M350.187,221.053h-2.994a.694.694,0,0,1-.692-.692V206.692a.694.694,0,0,1,.692-.692h2.994a.694.694,0,0,1,.692.692v13.668A.694.694,0,0,1,350.187,221.053Z" transform="translate(-331.493 -206)"/></g></g><path class="b" d="M56.271,93.616H31.692A.694.694,0,0,1,31,92.924V86.692A.694.694,0,0,1,31.692,86H56.271a.694.694,0,0,1,.692.692v6.231A.694.694,0,0,1,56.271,93.616Z" transform="translate(0 -38.54)"/><path class="b" d="M56.642,46.508H31.51a.411.411,0,0,1-.41-.41V45.51a.411.411,0,0,1,.41-.41H56.648a.411.411,0,0,1,.41.41V46.1A.412.412,0,0,1,56.642,46.508Z" transform="translate(-0.094 0)"/></g></g></svg>